{
  "accessors": [
    {
      "bufferView": 2,
      "componentType": 5126,
      "count": 6588,
      "max": [
        0.35245782136917114,
        4.504303932189941,
        0.35245785117149353
      ],
      "min": [
        -0.3530395030975342,
        4.408331871032715,
        -0.352457731962204
      ],
      "type": "VEC3"
    },
    {
      "bufferView": 2,
      "byteOffset": 79056,
      "componentType": 5126,
      "count": 6588,
      "max": [
        0.9999980926513672,
        1.0,
        0.9999980926513672
      ],
      "min": [
        -0.9999980926513672,
        -1.0,
        -0.9999980926513672
      ],
      "type": "VEC3"
    },
    {
      "bufferView": 1,
      "componentType": 5126,
      "count": 6588,
      "max": [
        0.8750001192092896,
        1.0000001192092896
      ],
      "min": [
        0.0,
        0.0
      ],
      "type": "VEC2"
    },
    {
      "bufferView": 0,
      "componentType": 5125,
      "count": 36864,
      "type": "SCALAR"
    },
    {
      "bufferView": 2,
      "byteOffset": 158112,
      "componentType": 5126,
      "count": 65532,
      "max": [
        0.3468382656574249,
        0.056579068303108215,
        0.2315203845500946
      ],
      "min": [
        0.1984991729259491,
        -0.2539328634738922,
        -0.05469601973891258
      ],
      "type": "VEC3"
    },
    {
      "bufferView": 2,
      "byteOffset": 944496,
      "componentType": 5126,
      "count": 65532,
      "max": [
        1.0,
        0.9999421238899231,
        0.9999535083770752
      ],
      "min": [
        -0.9999979138374329,
        -1.0,
        -0.9999971985816956
      ],
      "type": "VEC3"
    },
    {
      "bufferView": 1,
      "byteOffset": 52704,
      "componentType": 5126,
      "count": 65532,
      "max": [
        0.0,
        0.0
      ],
      "min": [
        0.0,
        0.0
      ],
      "type": "VEC2"
    },
    {
      "bufferView": 0,
      "byteOffset": 147456,
      "componentType": 5125,
      "count": 98298,
      "type": "SCALAR"
    },
    {
      "bufferView": 2,
      "byteOffset": 1730880,
      "componentType": 5126,
      "count": 65532,
      "max": [
        0.2603832185268402,
        0.05657894164323807,
        0.3468804657459259
      ],
      "min": [
        -0.024659063667058945,
        -0.25393256545066833,
        0.17554043233394623
      ],
      "type": "VEC3"
    },
    {
      "bufferView": 2,
      "byteOffset": 2517264,
      "componentType": 5126,
      "count": 65532,
      "max": [
        1.0,
        0.9999426603317261,
        0.9999781847000122
      ],
      "min": [
        -0.999996542930603,
        -1.0,
        -0.999972939491272
      ],
      "type": "VEC3"
    },
    {
      "bufferView": 1,
      "byteOffset": 576960,
      "componentType": 5126,
      "count": 65532,
      "max": [
        0.0,
        0.0
      ],
      "min": [
        0.0,
        0.0
      ],
      "type": "VEC2"
    },
    {
      "bufferView": 0,
      "byteOffset": 540648,
      "componentType": 5125,
      "count": 98298,
      "type": "SCALAR"
    },
    {
      "bufferView": 2,
      "byteOffset": 3303648,
      "componentType": 5126,
      "count": 65532,
      "max": [
        -0.02056943252682686,
        0.05657897889614105,
        0.34577274322509766
      ],
      "min": [
        -0.2866261899471283,
        -0.2539324164390564,
        0.15189573168754578
      ],
      "type": "VEC3"
    },
    {
      "bufferView": 2,
      "byteOffset": 4090032,
      "componentType": 5126,
      "count": 65532,
      "max": [
        0.9999992847442627,
        0.9999414682388306,
        0.9999637603759766
      ],
      "min": [
        -0.9999678134918213,
        -1.0,
        -0.9999699592590332
      ],
      "type": "VEC3"
    },
    {
      "bufferView": 1,
      "byteOffset": 1101216,
      "componentType": 5126,
      "count": 65532,
      "max": [
        0.0,
        0.0
      ],
      "min": [
        0.0,
        0.0
      ],
      "type": "VEC2"
    },
    {
      "bufferView": 0,
      "byteOffset": 933840,
      "componentType": 5125,
      "count": 98298,
      "type": "SCALAR"
    },
    {
      "bufferView": 2,
      "byteOffset": 4876416,
      "componentType": 5126,
      "count": 65532,
      "max": [
        0.1664685755968094,
        0.05657920986413956,
        0.19928625226020813
      ],
      "min": [
        -0.33500880002975464,
        -0.2539326548576355,
        -0.34822046756744385
      ],
      "type": "VEC3"
    },
    {
      "bufferView": 2,
      "byteOffset": 5662800,
      "componentType": 5126,
      "count": 65532,
      "max": [
        0.9999995231628418,
        0.9999421834945679,
        0.9999537467956543
      ],
      "min": [
        -0.999940812587738,
        -1.0,
        -0.9999552369117737
      ],
      "type": "VEC3"
    },
    {
      "bufferView": 1,
      "byteOffset": 1625472,
      "componentType": 5126,
      "count": 65532,
      "max": [
        0.0,
        0.0
      ],
      "min": [
        0.0,
        0.0
      ],
      "type": "VEC2"
    },
    {
      "bufferView": 0,
      "byteOffset": 1327032,
      "componentType": 5125,
      "count": 98298,
      "type": "SCALAR"
    },
    {
      "bufferView": 2,
      "byteOffset": 6449184,
      "componentType": 5126,
      "count": 65532,
      "max": [
        0.3474372923374176,
        0.05945038050413132,
        0.3474372923374176
      ],
      "min": [
        -0.34743732213974,
        -0.25781556963920593,
        -0.34743732213974
      ],
      "type": "VEC3"
    },
    {
      "bufferView": 2,
      "byteOffset": 7235568,
      "componentType": 5126,
      "count": 65532,
      "max": [
        0.999997615814209,
        1.0,
        0.9999980926513672
      ],
      "min": [
        -0.999997615814209,
        -1.0,
        -0.999997615814209
      ],
      "type": "VEC3"
    },
    {
      "bufferView": 1,
      "byteOffset": 2149728,
      "componentType": 5126,
      "count": 65532,
      "max": [
        0.0,
        0.0
      ],
      "min": [
        0.0,
        0.0
      ],
      "type": "VEC2"
    },
    {
      "bufferView": 0,
      "byteOffset": 1720224,
      "componentType": 5125,
      "count": 116799,
      "type": "SCALAR"
    },
    {
      "bufferView": 2,
      "byteOffset": 8021952,
      "componentType": 5126,
      "count": 65534,
      "max": [
        0.26850417256355286,
        0.05657914653420448,
        -0.17017081379890442
      ],
      "min": [
        -0.2674155533313751,
        -0.2539324164390564,
        -0.3477679193019867
      ],
      "type": "VEC3"
    },
    {
      "bufferView": 2,
      "byteOffset": 8808360,
      "componentType": 5126,
      "count": 65534,
      "max": [
        0.9999985694885254,
        0.9999420642852783,
        0.999972939491272
      ],
      "min": [
        -0.9997147917747498,
        -1.0,
        -0.9999992847442627
      ],
      "type": "VEC3"
    },
    {
      "bufferView": 1,
      "byteOffset": 2673984,
      "componentType": 5126,
      "count": 65534,
      "max": [
        0.0,
        0.0
      ],
      "min": [
        0.0,
        0.0
      ],
      "type": "VEC2"
    },
    {
      "bufferView": 0,
      "byteOffset": 2187420,
      "componentType": 5125,
      "count": 98298,
      "type": "SCALAR"
    },
    {
      "bufferView": 2,
      "byteOffset": 9594768,
      "componentType": 5126,
      "count": 65534,
      "max": [
        -0.20436133444309235,
        0.05657895654439926,
        0.08048859238624573
      ],
      "min": [
        -0.34832119941711426,
        -0.25393250584602356,
        -0.22606010735034943
      ],
      "type": "VEC3"
    },
    {
      "bufferView": 2,
      "byteOffset": 10381176,
      "componentType": 5126,
      "count": 65534,
      "max": [
        0.9999671578407288,
        0.9999412894248962,
        0.9999992251396179
      ],
      "min": [
        -0.9999978542327881,
        -1.0,
        -0.9999876022338867
      ],
      "type": "VEC3"
    },
    {
      "bufferView": 1,
      "byteOffset": 3198256,
      "componentType": 5126,
      "count": 65534,
      "max": [
        0.0,
        0.0
      ],
      "min": [
        0.0,
        0.0
      ],
      "type": "VEC2"
    },
    {
      "bufferView": 0,
      "byteOffset": 2580612,
      "componentType": 5125,
      "count": 98298,
      "type": "SCALAR"
    },
    {
      "bufferView": 2,
      "byteOffset": 11167584,
      "componentType": 5126,
      "count": 3311,
      "max": [
        -0.25733378529548645,
        0.05657895654439926,
        0.09860895574092865
      ],
      "min": [
        -0.33964043855667114,
        -0.25393152236938477,
        0.05783200263977051
      ],
      "type": "VEC3"
    },
    {
      "bufferView": 2,
      "byteOffset": 11207316,
      "componentType": 5126,
      "count": 3311,
      "max": [
        0.9943656921386719,
        0.9999396800994873,
        0.9991547465324402
      ],
      "min": [
        -0.9913836717605591,
        -1.0,
        -0.9996424913406372
      ],
      "type": "VEC3"
    },
    {
      "bufferView": 1,
      "byteOffset": 3722528,
      "componentType": 5126,
      "count": 3311,
      "max": [
        0.0,
        0.0
      ],
      "min": [
        0.0,
        0.0
      ],
      "type": "VEC2"
    },
    {
      "bufferView": 0,
      "byteOffset": 2973804,
      "componentType": 5125,
      "count": 4965,
      "type": "SCALAR"
    },
    {
      "bufferView": 2,
      "byteOffset": 11247048,
      "componentType": 5126,
      "count": 65532,
      "max": [
        1.0450057983398438,
        4.741007328033447,
        1.0449633598327637
      ],
      "min": [
        -1.0450057983398438,
        -3.9184305667877197,
        -1.0449632406234741
      ],
      "type": "VEC3"
    },
    {
      "bufferView": 2,
      "byteOffset": 12033432,
      "componentType": 5126,
      "count": 65532,
      "max": [
        0.999998152256012,
        1.0,
        0.999998152256012
      ],
      "min": [
        -0.9999990463256836,
        -1.0,
        -0.999998152256012
      ],
      "type": "VEC3"
    },
    {
      "bufferView": 1,
      "byteOffset": 3749016,
      "componentType": 5126,
      "count": 65532,
      "max": [
        1.000000238418579,
        0.6446359157562256
      ],
      "min": [
        0.0,
        0.0
      ],
      "type": "VEC2"
    },
    {
      "bufferView": 0,
      "byteOffset": 2993664,
      "componentType": 5125,
      "count": 369579,
      "type": "SCALAR"
    },
    {
      "bufferView": 2,
      "byteOffset": 12819816,
      "componentType": 5126,
      "count": 15933,
      "max": [
        1.0281569957733154,
        2.926389694213867,
        1.0281569957733154
      ],
      "min": [
        -1.0281568765640259,
        -3.901715040206909,
        -1.0281569957733154
      ],
      "type": "VEC3"
    },
    {
      "bufferView": 2,
      "byteOffset": 13011012,
      "componentType": 5126,
      "count": 15933,
      "max": [
        0.9999969601631165,
        1.0,
        0.9999969601631165
      ],
      "min": [
        -0.9999970197677612,
        -0.9999197721481323,
        -0.9999969601631165
      ],
      "type": "VEC3"
    },
    {
      "bufferView": 1,
      "byteOffset": 4273272,
      "componentType": 5126,
      "count": 15933,
      "max": [
        1.000000238418579,
        0.6446359157562256
      ],
      "min": [
        0.0,
        0.0
      ],
      "type": "VEC2"
    },
    {
      "bufferView": 0,
      "byteOffset": 4471980,
      "componentType": 5125,
      "count": 80277,
      "type": "SCALAR"
    },
    {
      "bufferView": 2,
      "byteOffset": 13202208,
      "componentType": 5126,
      "count": 2716,
      "max": [
        1.0661790370941162,
        -0.7987533807754517,
        1.0661790370941162
      ],
      "min": [
        -1.0661790370941162,
        -2.5345561504364014,
        -1.0661790370941162
      ],
      "type": "VEC3"
    },
    {
      "bufferView": 2,
      "byteOffset": 13234800,
      "componentType": 5126,
      "count": 2716,
      "max": [
        0.999998152256012,
        0.7145843505859375,
        0.999998152256012
      ],
      "min": [
        -0.999998152256012,
        -0.7145786285400391,
        -0.999998152256012
      ],
      "type": "VEC3"
    },
    {
      "bufferView": 1,
      "byteOffset": 4400736,
      "componentType": 5126,
      "count": 2716,
      "max": [
        0.9873670339584351,
        0.9593645334243774
      ],
      "min": [
        0.028382739052176476,
        0.11215853691101074
      ],
      "type": "VEC2"
    },
    {
      "bufferView": 0,
      "byteOffset": 4793088,
      "componentType": 5125,
      "count": 14976,
      "type": "SCALAR"
    }
  ],
  "asset": {
    "extras": {
      "author": "athmos001 (https://sketchfab.com/athmos001)",
      "license": "CC-BY-NC-4.0 (http://creativecommons.org/licenses/by-nc/4.0/)",
      "source": "https://sketchfab.com/3d-models/plastic-bottle-23669d5ee0414a8fa2afbb6edbae0d6b",
      "title": "Plastic bottle"
    },
    "generator": "Sketchfab-13.79.0",
    "version": "2.0"
  },
  "bufferViews": [
    {
      "buffer": 0,
      "byteLength": 4852992,
      "name": "floatBufferViews",
      "target": 34963
    },
    {
      "buffer": 0,
      "byteLength": 4422464,
      "byteOffset": 4852992,
      "byteStride": 8,
      "name": "floatBufferViews",
      "target": 34962
    },
    {
      "buffer": 0,
      "byteLength": 13267392,
      "byteOffset": 9275456,
      "byteStride": 12,
      "name": "floatBufferViews",
      "target": 34962
    }
  ],
  "buffers": [
    {
      "byteLength": 22542848,
      "uri": "scene.bin"
    }
  ],
  "extensionsUsed": [
    "KHR_materials_transmission"
  ],
  "images": [
    {
      "uri": "textures/etiquette_baseColor.png"
    }
  ],
  "materials": [
    {
      "doubleSided": true,
      "name": "bouchon",
      "pbrMetallicRoughness": {
        "baseColorFactor": [
          0.538226,
          0.114769,
          0.397442,
          1.0
        ],
        "metallicFactor": 0.0,
        "roughnessFactor": 0.443636
      }
    },
    {
      "alphaMode": "BLEND",
      "doubleSided": true,
      "extensions": {
        "KHR_materials_transmission": {
          "transmissionFactor": 0.9431708895067233
        }
      },
      "name": "plastique",
      "pbrMetallicRoughness": {
        "baseColorFactor": [
          0.877237,
          0.97614,
          1.0,
          0.25
        ],
        "metallicFactor": 0.0,
        "roughnessFactor": 0.0
      }
    },
    {
      "alphaMode": "BLEND",
      "doubleSided": true,
      "name": "etiquette",
      "pbrMetallicRoughness": {
        "baseColorFactor": [
          0.505633367722231,
          0.505633367722231,
          0.505633367722231,
          0.75
        ],
        "baseColorTexture": {
          "index": 0
        },
        "metallicFactor": 0.0
      }
    }
  ],
  "meshes": [
    {
      "name": "Object_0",
      "primitives": [
        {
          "attributes": {
            "NORMAL": 1,
            "POSITION": 0,
            "TEXCOORD_0": 2
          },
          "indices": 3,
          "material": 0,
          "mode": 4
        }
      ]
    },
    {
      "name": "Object_1",
      "primitives": [
        {
          "attributes": {
            "NORMAL": 5,
            "POSITION": 4,
            "TEXCOORD_0": 6
          },
          "indices": 7,
          "material": 0,
          "mode": 4
        }
      ]
    },
    {
      "name": "Object_2",
      "primitives": [
        {
          "attributes": {
            "NORMAL": 9,
            "POSITION": 8,
            "TEXCOORD_0": 10
          },
          "indices": 11,
          "material": 0,
          "mode": 4
        }
      ]
    },
    {
      "name": "Object_3",
      "primitives": [
        {
          "attributes": {
            "NORMAL": 13,
            "POSITION": 12,
            "TEXCOORD_0": 14
          },
          "indices": 15,
          "material": 0,
          "mode": 4
        }
      ]
    },
    {
      "name": "Object_4",
      "primitives": [
        {
          "attributes": {
            "NORMAL": 17,
            "POSITION": 16,
            "TEXCOORD_0": 18
          },
          "indices": 19,
          "material": 0,
          "mode": 4
        }
      ]
    },
    {
      "name": "Object_5",
      "primitives": [
        {
          "attributes": {
            "NORMAL": 21,
            "POSITION": 20,
            "TEXCOORD_0": 22
          },
          "indices": 23,
          "material": 0,
          "mode": 4
        }
      ]
    },
    {
      "name": "Object_6",
      "primitives": [
        {
          "attributes": {
            "NORMAL": 25,
            "POSITION": 24,
            "TEXCOORD_0": 26
          },
          "indices": 27,
          "material": 0,
          "mode": 4
        }
      ]
    },
    {
      "name": "Object_7",
      "primitives": [
        {
          "attributes": {
            "NORMAL": 29,
            "POSITION": 28,
            "TEXCOORD_0": 30
          },
          "indices": 31,
          "material": 0,
          "mode": 4
        }
      ]
    },
    {
      "name": "Object_8",
      "primitives": [
        {
          "attributes": {
            "NORMAL": 33,
            "POSITION": 32,
            "TEXCOORD_0": 34
          },
          "indices": 35,
          "material": 0,
          "mode": 4
        }
      ]
    },
    {
      "name": "Object_9",
      "primitives": [
        {
          "attributes": {
            "NORMAL": 37,
            "POSITION": 36,
            "TEXCOORD_0": 38
          },
          "indices": 39,
          "material": 1,
          "mode": 4
        }
      ]
    },
    {
      "name": "Object_10",
      "primitives": [
        {
          "attributes": {
            "NORMAL": 41,
            "POSITION": 40,
            "TEXCOORD_0": 42
          },
          "indices": 43,
          "material": 1,
          "mode": 4
        }
      ]
    },
    {
      "name": "Object_11",
      "primitives": [
        {
          "attributes": {
            "NORMAL": 45,
            "POSITION": 44,
            "TEXCOORD_0": 46
          },
          "indices": 47,
          "material": 2,
          "mode": 4
        }
      ]
    }
  ],
  "nodes": [
    {
      "children": [
        1
      ],
      "matrix": [
        1.0,
        0.0,
        0.0,
        0.0,
        0.0,
        2.220446049250313e-16,
        -1.0,
        0.0,
        0.0,
        1.0,
        2.220446049250313e-16,
        0.0,
        0.0,
        0.0,
        0.0,
        1.0
      ],
      "name": "Sketchfab_model"
    },
    {
      "children": [
        2
      ],
      "name": "root"
    },
    {
      "children": [
        3
      ],
      "matrix": [
        1.0,
        0.0,
        0.0,
        0.0,
        0.0,
        2.220446049250313e-16,
        1.0,
        0.0,
        0.0,
        -1.0,
        2.220446049250313e-16,
        0.0,
        0.0,
        0.0,
        0.0,
        1.0
      ],
      "name": "GLTF_SceneRootNode"
    },
    {
      "children": [
        4,
        6,
        15,
        18
      ],
      "matrix": [
        3.570157613034649,
        -1.950477209676993e-08,
        1.1434884044806854,
        0.0,
        -1.1434884044806721,
        -6.366221044276774e-07,
        3.570157613034596,
        0.0,
        1.756116048848856e-07,
        -3.7488119602202827,
        -6.122325570448443e-07,
        0.0,
        0.0,
        1.0558899641036987,
        0.0,
        1.0
      ],
      "name": "Empty.bouteille_5"
    },
    {
      "children": [
        5
      ],
      "matrix": [
        0.12254554092551775,
        0.2122551189615493,
        -1.9275701711491027e-08,
        0.0,
        1.195564433042563e-09,
        -1.991840188693054e-08,
        -0.21173141896724607,
        0.0,
        -0.2122551189615502,
        0.12254554092551713,
        -1.2726859422711594e-08,
        0.0,
        0.0,
        0.0,
        0.10813137888908386,
        1.0
      ],
      "name": "bouchon_bas_0"
    },
    {
      "mesh": 0,
      "name": "Object_5"
    },
    {
      "children": [
        7,
        8,
        9,
        10,
        11,
        12,
        13,
        14
      ],
      "matrix": [
        0.12565965247276242,
        0.21764891878427559,
        -1.976553336776877e-08,
        0.0,
        1.225945737304196e-09,
        -2.0424561999599915e-08,
        -0.21711187064647577,
        0.0,
        -0.21764891878427647,
        0.12565965247276178,
        -1.305027273982702e-08,
        0.0,
        -0.00032954924972727895,
        0.0005591894732788205,
        -0.9018265604972839,
        1.0
      ],
      "name": "bouchon_haut_1"
    },
    {
      "mesh": 1,
      "name": "Object_7"
    },
    {
      "mesh": 2,
      "name": "Object_8"
    },
    {
      "mesh": 3,
      "name": "Object_9"
    },
    {
      "mesh": 4,
      "name": "Object_10"
    },
    {
      "mesh": 5,
      "name": "Object_11"
    },
    {
      "mesh": 6,
      "name": "Object_12"
    },
    {
      "mesh": 7,
      "name": "Object_13"
    },
    {
      "mesh": 8,
      "name": "Object_14"
    },
    {
      "children": [
        16,
        17
      ],
      "matrix": [
        0.12254554092551775,
        0.2122551189615493,
        -1.9275701711491027e-08,
        0.0,
        1.195564433042563e-09,
        -1.991840188693054e-08,
        -0.21173141896724607,
        0.0,
        -0.2122551189615502,
        0.12254554092551713,
        -1.2726859422711594e-08,
        0.0,
        0.0,
        0.0,
        0.10813137888908386,
        1.0
      ],
      "name": "bouteille_2"
    },
    {
      "mesh": 9,
      "name": "Object_16"
    },
    {
      "mesh": 10,
      "name": "Object_17"
    },
    {
      "children": [
        19
      ],
      "matrix": [
        0.11989490787794524,
        0.20766405249882525,
        -1.8858770093073515e-08,
        0.0,
        1.1476699394276652e-09,
        -1.912047920966275e-08,
        -0.20324954390525724,
        0.0,
        -0.20766405249882608,
        0.11989490787794455,
        -1.2451579588498467e-08,
        0.0,
        0.0,
        0.0,
        0.11204591393470764,
        1.0
      ],
      "name": "etiquette_3"
    },
    {
      "mesh": 11,
      "name": "Object_19"
    }
  ],
  "samplers": [
    {
      "magFilter": 9729,
      "minFilter": 9987,
      "wrapS": 10497,
      "wrapT": 10497
    }
  ],
  "scene": 0,
  "scenes": [
    {
      "name": "Sketchfab_Scene",
      "nodes": [
        0
      ]
    }
  ],
  "textures": [
    {
      "sampler": 0,
      "source": 0
    }
  ]
}
